<svg width="120" height="120" viewBox="0 0 120 120" fill="none" xmlns="http://www.w3.org/2000/svg">
    <path d="M110 30V12C110 10.8954 109.105 10 108 10H90" stroke="white" stroke-width="4"/>
    <path d="M110 90V108C110 109.105 109.105 110 108 110H90" stroke="white" stroke-width="4"/>
    <path d="M10 30V12C10 10.8954 10.8954 10 12 10H30" stroke="white" stroke-width="4"/>
    <path d="M10 90V108C10 109.105 10.8954 110 12 110H30" stroke="white" stroke-width="4"/>
    <path d="M55.625 62.5C55.625 62.9104 55.5442 63.3167 55.3871 63.6959C55.2301 64.075 54.9999 64.4195 54.7097 64.7097C54.4195 64.9999 54.075 65.2301 53.6959 65.3871C53.3167 65.5442 52.9104 65.625 52.5 65.625C51.6712 65.625 50.8763 65.2958 50.2903 64.7097C49.7042 64.1237 49.375 63.3288 49.375 62.5C49.375 61.6712 49.7042 60.8763 50.2903 60.2903C50.8763 59.7042 51.6712 59.375 52.5 59.375C52.9104 59.375 53.3167 59.4558 53.6959 59.6129C54.075 59.7699 54.4195 60.0001 54.7097 60.2903C54.9999 60.5805 55.2301 60.925 55.3871 61.3041C55.5442 61.6833 55.625 62.0896 55.625 62.5ZM67.5 59.375C66.6712 59.375 65.8763 59.7042 65.2903 60.2903C64.7042 60.8763 64.375 61.6712 64.375 62.5C64.375 63.3288 64.7042 64.1237 65.2903 64.7097C65.8763 65.2958 66.6712 65.625 67.5 65.625C68.3288 65.625 69.1237 65.2958 69.7097 64.7097C70.2958 64.1237 70.625 63.3288 70.625 62.5C70.625 61.6712 70.2958 60.8763 69.7097 60.2903C69.1237 59.7042 68.3288 59.375 67.5 59.375ZM85 60C85 66.6304 82.3661 72.9893 77.6777 77.6777C72.9893 82.3661 66.6304 85 60 85C56.717 85 53.4661 84.3534 50.4329 83.097C47.3998 81.8406 44.6438 79.9991 42.3223 77.6777C37.6339 72.9893 35 66.6304 35 60C35 53.3696 37.6339 47.0107 42.3223 42.3223C47.0107 37.6339 53.3696 35 60 35C63.283 35 66.5339 35.6466 69.5671 36.903C72.6002 38.1594 75.3562 40.0009 77.6777 42.3223C79.9991 44.6438 81.8406 47.3998 83.097 50.4329C84.3534 53.4661 85 56.717 85 60ZM56.65 40.3C60.15 46.1 66.5 50 73.75 50C74.9 50 76.025 49.875 77.1 49.7C73.6 43.9 67.25 40 60 40C58.85 40 57.725 40.125 56.65 40.3ZM41.05 53.675C45.3634 51.2286 48.6217 47.2759 50.2 42.575C45.8866 45.0214 42.6283 48.9741 41.05 53.675ZM80 60C80 58.05 79.7 56.175 79.175 54.4C77.425 54.775 75.625 55 73.75 55C70.034 55.0008 66.3646 54.1732 63.0087 52.5774C59.6528 50.9816 56.6948 48.6578 54.35 45.775C53.0368 48.9478 51.0853 51.8167 48.6167 54.2036C46.1481 56.5904 43.2152 58.4443 40 59.65V60C40 71.025 48.975 80 60 80C71.025 80 80 71.025 80 60Z" fill="white"/>
    <path d="M18 20H102" stroke="white" stroke-width="2">
        <animateTransform
          attributeName="transform"
          begin="0s"
          dur="3s"
          type="translate"
          from="0 0"
          to="0 80"
          repeatCount="indefinite"
        />
    </path>
</svg>
