<svg width="344" xmlns="http://www.w3.org/2000/svg" height="108" id="screenshot-ff6df355-52be-80c2-8006-97dbb5309240" viewBox="0 0 344 108" xmlns:xlink="http://www.w3.org/1999/xlink" fill="none" version="1.1"><g id="shape-ff6df355-52be-80c2-8006-97dbb5309240" clip-path="url(#render-1-a)" rx="0" ry="0" style="fill: rgb(0, 0, 0);"><defs><clipPath id="render-1-a" class="svg-def" transform="matrix(2.248310, 0.000000, 0.000000, 2.250055, -247.305495, -35.997668)"><rect width="153" height="48" fill="#fff" transform="translate(110 16)"/></clipPath></defs><g id="shape-ff6df355-52be-80c2-8006-97dbb5309241"><g class="fills" id="fills-ff6df355-52be-80c2-8006-97dbb5309241"><path d="M240.98223876953125,8.293190002441406C240.98223876953125,8.293190002441406,234.5343017578125,10.862586975097656,227.03384399414062,19.136146545410156C219.53582763671875,27.409523010253906,215.16741943359375,36.712745666503906,218.40032958984375,39.186927795410156C219.6414794921875,40.127601623535156,222.505859375,40.306678771972656,227.70156860351562,35.604408264160156C232.49517822265625,31.437599182128906,236.25872802734375,26.214210510253906,238.69586181640625,20.345130920410156C242.050537109375,12.155494689941406,240.98223876953125,8.393898010253906,240.98223876953125,8.304420471191406M282.02764892578125,23.177833557128906C273.6953125,18.901039123535156,267.60467529296875,13.661476135253906,261.26678466796875,10.420204162597656C255.22079467773438,7.3136982917785645,251.31344604492188,6.0148091316223145,246.425537109375,6.6698994636535645C245.7420654296875,6.7912373542785645,245.06997680664062,6.9599385261535645,244.41104125976562,7.1735615730285645C244.41104125976562,7.1735615730285645,246.92697143554688,15.777503967285156,236.91082763671875,30.230628967285156C226.7662353515625,44.885414123535156,217.56158447265625,44.784584045410156,214.94479370117188,40.759925842285156C212.20404052734375,36.511207580566406,215.742919921875,27.851783752441406,221.65594482421875,20.143592834472656C227.84561157226562,12.082984924316406,238.71832275390625,5.3989644050598145,238.71832275390625,5.3989644050598145C238.71832275390625,5.3989644050598145,235.25143432617188,3.2776873111724854,226.7392578125,8.108253479003906C218.43411254882812,12.799293518066406,204.13931274414062,23.994911193847656,190.8720703125,42.875953674316406C177.60702514648438,61.757179260253906,174.97885131835938,72.1464614868164,173.07684326171875,80.32486724853516C171.17678833007812,88.5029067993164,172.90365600585938,97.2636489868164,181.96408081054688,97.2636489868164C191.02490234375,97.2636489868164,201.57177734375,83.4314956665039,204.54635620117188,78.62308502197266C210.07711791992188,69.66678619384766,213.68585205078125,55.929847717285156,206.15841674804688,57.816383361816406C202.45089721679688,58.745521545410156,199.44729614257812,62.854225158691406,197.54977416992188,66.8118667602539C196.35342407226562,69.35367584228516,195.43832397460938,72.0192642211914,194.82247924804688,74.76065826416016C192.19186401367188,75.84586334228516,189.720947265625,77.2846450805664,187.4794921875,79.03726959228516C184.98367309570312,80.88651275634766,182.65216064453125,82.9467544555664,180.50961303710938,85.19498443603516C180.50961303710938,85.19498443603516,180.54327392578125,78.65653228759766,185.75054931640625,68.0770034790039C190.95733642578125,57.497169494628906,200.51519775390625,52.666358947753906,205.92898559570312,52.213233947753906C210.80569458007812,51.820899963378906,217.1527099609375,55.963417053222656,211.77236938476562,71.2452163696289C206.39227294921875,86.5270767211914,190.52127075195312,105.10587310791016,173.85031127929688,105.33560943603516C158.46282958984375,105.54813385009766,148.39703369140625,85.89444732666016,169.81222534179688,51.597145080566406C193.51388549804688,13.706153869628906,221.31427001953125,2.0796892642974854,230.34130859375,0.7865374088287354C239.36578369140625,-0.5063092708587646,242.30215454101562,3.4791033267974854,242.30215454101562,3.4791033267974854C247.73629760742188,1.2480242252349854,253.60430908203125,0.27957943081855774,259.46575927734375,0.6467669010162354C270.4891052246094,1.3914568424224854,279.0124816894531,9.200111389160156,290.265380859375,14.685707092285156C287.3402099609375,17.484596252441406,284.5501708984375,20.423377990722656,282.03204345703125,23.177833557128906M331.55108642578125,10.420204162597656C323.9112243652344,15.323768615722656,313.3399353027344,19.768592834472656,303.18402099609375,18.816932678222656C300.6122131347656,21.475929260253906,297.8602294921875,24.554725646972656,295.1036376953125,27.913307189941406C312.71466064453125,31.400733947753906,328.14495849609375,20.479530334472656,336.3487548828125,11.181800842285156C339.3392028808594,7.8388447761535645,341.9093017578125,4.1407856941223145,344,0.17069269716739655C340.2633056640625,4.0649800300598145,336.0837097167969,7.5051045417785645,331.5442810058594,10.420204162597656M308.0946044921875,60.083412170410156C308.2270812988281,59.851112365722656,308.33709716796875,59.605262756347656,308.4180908203125,59.350379943847656C308.36651611328125,58.946327209472656,308.17767333984375,58.572731018066406,307.88323974609375,58.291725158691406C307.5884094238281,58.010475158691406,307.20855712890625,57.838844299316406,306.8016357421875,57.805030822753906C305.12445068359375,57.726783752441406,302.83795166015625,58.045875549316406,296.83709716796875,64.69583892822266C291.859375,70.18753814697266,287.57403564453125,76.2717056274414,284.080322265625,82.8102798461914C280.64501953125,89.09085845947266,279.2532653808594,93.77054595947266,281.22711181640625,94.97965240478516C281.86798095703125,95.31217193603516,282.6123046875,95.38834381103516,283.3090515136719,95.19242095947266C284.64459228515625,94.87332916259766,286.1600646972656,93.61954498291016,288.46435546875,90.94937896728516C289.54388427734375,89.69535064697266,290.7398681640625,87.9209976196289,292.1719970703125,85.95621490478516C296.1424255371094,80.54862213134766,306.1203918457031,63.525978088378906,308.0946044921875,60.083412170410156ZM245.7598876953125,67.3156509399414C246.7606201171875,64.69583892822266,248.035400390625,59.551673889160156,245.38442993164062,57.530738830566406C242.5382080078125,55.386878967285156,235.27862548828125,60.419349670410156,235.24020385742188,65.58023834228516C235.1885986328125,70.86454010009766,240.35073852539062,73.2549819946289,241.58721923828125,73.5909194946289C242.29083251953125,73.78128814697266,242.5382080078125,73.75296783447266,242.88009643554688,73.1875991821289C243.97265625,71.2996597290039,244.9371337890625,69.33744049072266,245.7598876953125,67.3156509399414ZM240.26766967773438,76.9269790649414C238.4688720703125,76.09549713134766,236.78921508789062,75.02408599853516,235.27862548828125,73.74173736572266C233.7630615234375,72.4690933227539,232.49517822265625,70.92606353759766,231.54168701171875,69.19071197509766C231.44287109375,69.02298736572266,231.34164428710938,69.15177154541016,231.22930908203125,69.30277252197266C231.1168212890625,69.45413970947266,230.66943359375,69.86258697509766,226.80001831054688,75.53873443603516C222.93072509765625,81.2150650024414,216.98391723632812,92.9756851196289,222.3642578125,94.97965240478516C225.8109130859375,96.2614517211914,231.54168701171875,90.22159576416016,234.66909790039062,86.2192153930664C236.7982177734375,83.4255142211914,238.72952270507812,80.48490142822266,240.44515991210938,77.4194107055664C240.60934448242188,77.0781021118164,240.44515991210938,76.9997329711914,240.27206420898438,76.9269790649414M301.3001708984375,90.51248931884766C299.8409423828125,92.8526382446289,298.1726379394531,97.3420181274414,302.97735595703125,94.54862213134766C308.85455322265625,91.1511001586914,317.2271728515625,78.4384536743164,317.2271728515625,78.4384536743164L321.02459716796875,78.4384536743164C317.5689392089844,83.75626373291016,313.72198486328125,88.80814361572266,309.51544189453125,93.5521011352539C303.5594482421875,100.15750885009766,296.2931823730469,106.1584243774414,291.1759338378906,105.56485748291016C285.197509765625,104.86539459228516,287.07257080078125,97.0115737915039,287.07257080078125,97.0115737915039C287.07257080078125,97.0115737915039,278.5201721191406,106.1249771118164,272.60272216796875,105.46988677978516C264.612060546875,104.58548736572266,267.0494384765625,94.69974517822266,267.0494384765625,94.69974517822266C267.0494384765625,94.69974517822266,258.01336669921875,105.79996490478516,251.85528564453125,105.45865631103516C242.203369140625,104.89884185791016,244.629150390625,93.1434097290039,247.31365966796875,84.86454010009766C248.75030517578125,80.43692779541016,250.08148193359375,76.9604263305664,250.08148193359375,76.9604263305664C250.08148193359375,76.9604263305664,249.12576293945312,77.2126235961914,247.0684814453125,77.5202407836914C245.99383544921875,77.6716079711914,244.03558349609375,77.7834243774414,244.03558349609375,77.7834243774414C244.03558349609375,77.7834243774414,240.01568603515625,84.88126373291016,236.80078125,89.14676666259766C233.5833740234375,93.4123306274414,219.9158935546875,108.1174087524414,211.87359619140625,105.17325592041016C204.43621826171875,102.4527359008789,206.89590454101562,91.05570220947266,211.22369384765625,81.9986343383789C217.54379272460938,68.79361724853516,235.31680297851562,49.822792053222656,245.56884765625,52.330421447753906C256.1946716308594,54.911170959472656,245.80963134765625,74.31851959228516,245.80963134765625,74.31851959228516C245.80963134765625,74.31851959228516,245.80963134765625,74.39127349853516,245.921875,74.44156646728516C246.13311767578125,74.51981353759766,246.68862915039062,74.58158111572266,247.96795654296875,74.32975006103516C249.29434204101562,74.05863189697266,250.59634399414062,73.67081451416016,251.85528564453125,73.1708755493164C251.85528564453125,73.1708755493164,262.53692626953125,50.779945373535156,274.33837890625,36.130653381347656C286.13763427734375,21.481544494628906,309.67730712890625,-3.7476422786712646,318.91558837890625,2.3541033267974854C321.1526794433594,3.8542864322662354,320.147705078125,9.021034240722656,317.10345458984375,15.290199279785156C315.734130859375,15.735755920410156,314.34246826171875,16.109535217285156,312.93292236328125,16.410133361816406C314.9676208496094,12.709815979003906,316.31658935546875,9.591835021972656,316.718994140625,7.4145283699035645C318.11065673828125,-0.15389226377010345,300.45458984375,15.810951232910156,287.8372802734375,32.962501525878906C280.23797607421875,43.302467346191406,273.4861145019531,54.240516662597656,267.649658203125,65.66983795166016C269.927001953125,64.27872467041016,272.1034851074219,62.723976135253906,274.1585693359375,61.018104553222656C279.78594970703125,56.347389221191406,285.13470458984375,51.349342346191406,290.17559814453125,46.049964904785156C295.02947998046875,41.075721740722656,299.58245849609375,35.815589904785156,303.81146240234375,30.297889709472656C305.1538391113281,30.232826232910156,306.491455078125,30.094642639160156,307.8201599121094,29.883705139160156C303.211181640625,36.145179748535156,298.186279296875,42.088722229003906,292.77679443359375,47.673194885253906C287.74285888671875,52.767189025878906,282.294921875,58.247535705566406,277.5648193359375,62.227394104003906C273.3380126953125,65.82437896728516,268.88165283203125,69.13968658447266,264.2209777832031,72.1521987915039C264.2209777832031,72.1521987915039,253.18630981445312,94.42533111572266,259.1869201660156,95.85269927978516C262.71697998046875,96.7039566040039,269.68450927734375,85.96183013916016,269.68450927734375,85.96183013916016C269.68450927734375,85.96183013916016,278.77874755859375,72.0739517211914,284.2578125,65.80985260009766C291.73583984375,57.301368713378906,298.1726379394531,52.375221252441406,304.60516357421875,52.285743713378906C308.35089111328125,52.218605041503906,310.560791015625,56.204078674316406,310.560791015625,56.204078674316406L312.3236083984375,53.472511291503906L323.1715393066406,53.472511291503906C323.1715393066406,53.472511291503906,302.909912109375,87.8874282836914,301.2889404296875,90.47891998291016M331.5442810058594,10.420204162597656C323.9046325683594,15.323768615722656,313.335205078125,19.768592834472656,303.17962646484375,18.816932678222656C300.6053771972656,21.475929260253906,297.8533935546875,24.554725646972656,295.0970458984375,27.913307189941406C312.7080993652344,31.400733947753906,328.13836669921875,20.479530334472656,336.3421936035156,11.181800842285156C339.3370056152344,7.8390889167785645,341.90673828125,4.1410298347473145,344,0.17069269716739655C340.2633056640625,4.0649800300598145,336.0837097167969,7.5051045417785645,331.5442810058594,10.420204162597656ZM179.174072265625,27.303199768066406L168.85443115234375,27.303199768066406L163.02227783203125,36.735328674316406L173.3397216796875,36.735328674316406L179.174072265625,27.303199768066406ZM130.316162109375,59.965858459472656C134.70712280273438,53.942787170410156,146.82083129882812,32.833595275878906,146.82083129882812,32.833595275878906C146.76922607421875,32.430397033691406,146.58041381835938,32.057228088378906,146.28814697265625,31.775978088378906C145.99368286132812,31.494728088378906,145.61349487304688,31.322731018066406,145.20901489257812,31.288673400878906C143.53155517578125,31.210426330566406,140.73483276367188,31.775978088378906,135.181396484375,38.733680725097656C129.62808227539062,45.691810607910156,125.31588745117188,51.227638244628906,122.172607421875,56.988014221191406C118.72817993164062,63.274147033691406,117.22418212890625,67.7074966430664,119.20278930664062,68.91092681884766C119.84576416015625,69.23307037353516,120.58322143554688,69.30887603759766,121.27789306640625,69.12381744384766C122.56393432617188,68.79911041259766,124.24795532226562,67.5059585571289,126.5570068359375,64.84720611572266C127.64297485351562,63.604347229003906,128.87277221679688,61.930519104003906,130.316162109375,59.965858459472656ZM74.94931030273438,31.417457580566406C72.09613037109375,29.262245178222656,64.8431396484375,34.305824279785156,64.80508422851562,39.455848693847656C64.75994873046875,44.745521545410156,71.33181762695312,46.363380432128906,72.1815185546875,46.402320861816406C72.43121337890625,46.423561096191406,72.68075561523438,46.370826721191406,72.90325927734375,46.251564025878906C73.05401611328125,46.162757873535156,73.17526245117188,46.030189514160156,73.24966430664062,45.870887756347656C74.02056884765625,44.351234436035156,74.71548461914062,42.792945861816406,75.32916259765625,41.202125549316406C76.32986450195312,38.582374572753906,77.59991455078125,33.438087463378906,74.94931030273438,31.417457580566406ZM70.64810180664062,49.626991271972656C68.68084716796875,49.012001037597656,66.8013916015625,48.146461486816406,65.05673217773438,47.051979064941406C63.363555908203125,45.947792053222656,61.987762451171875,44.421791076660156,61.06378173828125,42.624122619628906C60.96240234375,42.456275939941406,60.850189208984375,42.584815979003906,60.748931884765625,42.736183166503906C60.6475830078125,42.887184143066406,60.06768798828125,43.614723205566406,56.18475341796875,49.313270568847656C52.304229736328125,55.012001037597656,46.555389404296875,66.6663589477539,51.94012451171875,68.67032623291016C55.37542724609375,69.97464752197266,61.173797607421875,63.884193420410156,64.32363891601562,59.898841857910156C66.68014526367188,56.766578674316406,68.85626220703125,53.503517150878906,70.84378051757812,50.124916076660156C70.97195434570312,49.783729553222656,70.84378051757812,49.705238342285156,70.65493774414062,49.643714904785156M154.92373657226562,53.136573791503906L158.7032470703125,53.136573791503906C158.7032470703125,53.136573791503906,139.76119995117188,80.56546783447266,129.06378173828125,79.28934478759766C123.09014892578125,78.5894546508789,124.86395263671875,71.2117691040039,124.86395263671875,71.2117691040039C124.86395263671875,71.2117691040039,116.47329711914062,81.04141998291016,108.76837158203125,79.04850006103516C101.77621459960938,77.2516860961914,106.29061889648438,65.61380767822266,106.29061889648438,65.61380767822266C105.49691772460938,65.93289947509766,90.3680419921875,83.0005874633789,79.73577880859375,78.90872955322266C68.6136474609375,74.60965728759766,74.38943481445312,60.318519592285156,76.50271606445312,56.019447326660156C78.29934692382812,52.397804260253906,80.284423828125,48.871376037597656,80.284423828125,48.871376037597656C80.284423828125,48.871376037597656,78.57818603515625,49.352577209472656,77.48745727539062,49.598915100097656C76.3970947265625,49.845008850097656,74.82113647460938,50.158729553222656,74.82113647460938,50.158729553222656C74.82113647460938,50.158729553222656,69.5577392578125,58.717567443847656,66.34274291992188,62.988502502441406C63.125457763671875,67.2596206665039,49.457977294921875,81.9368667602539,41.40447998046875,79.01493072509766C33.3509521484375,76.09281158447266,35.347503662109375,64.81363677978516,39.87109375,55.857093811035156C47.209686279296875,41.331275939941406,64.62066650390625,23.479835510253906,75.1065673828125,26.189125061035156C85.69857788085938,28.892738342285156,76.93002319335938,46.088905334472656,76.93002319335938,46.088905334472656C76.93002319335938,46.088905334472656,79.03671264648438,46.363380432128906,84.08636474609375,42.915138244628906C91.35739135742188,37.949806213378906,100.95553588867188,24.593910217285156,111.34494018554688,26.161170959472656C116.24395751953125,26.900123596191406,120.80804443359375,31.910255432128906,114.5667724609375,41.426246643066406C112.57693481445312,44.482460021972656,109.23825073242188,47.214332580566406,106.68206787109375,44.510414123535156C105.08804321289062,42.831153869628906,106.47946166992188,39.769203186035156,108.15228271484375,37.675758361816406C108.80438232421875,36.822364807128906,109.65432739257812,36.142005920410156,110.63003540039062,35.694740295410156C111.60342407226562,35.247962951660156,112.67352294921875,35.047767639160156,113.74609375,35.111976623535156C113.74609375,35.111976623535156,115.46148681640625,31.193641662597656,111.09524536132812,31.249366760253906C107.55859375,31.316749572753906,98.61038208007812,39.562049865722656,93.56069946289062,47.891578674316406C88.93148803710938,55.538002014160156,81.912109375,68.5639419555664,88.95843505859375,71.4020767211914C95.41793823242188,74.01065826416016,107.7117919921875,59.406044006347656,113.4044189453125,51.754005432128906C119.0970458984375,44.101722717285156,132.0721435546875,26.760231018066406,142.9560546875,26.066078186035156C146.7017822265625,25.819740295410156,148.93447875976562,29.239906311035156,148.93447875976562,29.239906311035156L150.19329833984375,27.247291564941406L161.07537841796875,27.247291564941406C161.07537841796875,27.247291564941406,140.57955932617188,61.482887268066406,138.97894287109375,64.07462310791016C137.71975708007812,66.10099029541016,136.04937744140625,70.65750885009766,140.65615844726562,68.1049575805664C145.26498413085938,65.55252838134766,154.92373657226562,53.136573791503906,154.92373657226562,53.136573791503906ZM149.00192260742188,107.9943618774414C140.98660278320312,102.4422378540039,131.39309692382812,99.63956451416016,121.65335083007812,100.00650787353516C119.01617431640625,100.07840728759766,116.43499755859375,100.77115631103516,114.11715698242188,102.0289077758789C111.7991943359375,103.2862319946289,109.80935668945312,105.07328033447266,108.30975341796875,107.2442398071289C104.1593017578125,99.99527740478516,95.95526123046875,95.54508209228516,83.27023315429688,95.64591217041016C62.774627685546875,95.88101959228516,42.4454345703125,105.34098052978516,26.338409423828125,105.32975006103516C10.9014892578125,105.32975006103516,-0.35565185546875,95.61759185791016,0.008544921875,78.3710708618164C0.685302734375,48.104225158691406,26.237396240234375,20.848915100097656,45.30743408203125,8.584205627441406C56.304168701171875,1.5367205142974854,65.4974365234375,-0.5568463802337646,71.50927734375,0.12052180618047714C75.8934326171875,0.6074602603912354,81.16815185546875,5.6788716316223145,77.8406982421875,13.151954650878906C72.95266723632812,24.073158264160156,66.20333862304688,23.177833557128906,66.45278930664062,17.954811096191406C66.59451293945312,14.557167053222656,68.85406494140625,12.418922424316406,70.5537109375,11.237648010253906C71.63284301757812,10.493202209472656,73.53948974609375,10.280311584472656,74.53546142578125,10.258094787597656C75.50238037109375,9.440711975097656,76.212890625,3.4622576236724854,68.38418579101562,5.4272847175598145C60.55316162109375,7.3919453620910645,51.045166015625,15.116859436035156,42.020599365234375,25.097694396972656C32.993560791015625,35.078529357910156,18.939453125,53.942787170410156,15.4656982421875,73.75296783447266C13.8448486328125,82.9388198852539,14.9058837890625,99.69315338134766,36.66741943359375,99.50272369384766C55.123779296875,99.35147857666016,82.32611083984375,87.1875991821289,107.32476806640625,87.4394302368164C117.02853393554688,87.5345230102539,125.47311401367188,90.15433502197266,132.05618286132812,94.21854400634766C138.52008056640625,98.2038345336914,146.27218627929688,104.02542877197266,149.02450561523438,108.0000991821289" style="fill: rgb(255, 255, 255);"/></g></g></g></svg>