<svg width="150" xmlns="http://www.w3.org/2000/svg" height="150" id="screenshot-0f94aa67-5850-8085-8006-97f42f3092d2" viewBox="0 0 150 150" xmlns:xlink="http://www.w3.org/1999/xlink" fill="none" version="1.1">
    <g id="shape-0f94aa67-5850-8085-8006-97f42f3092d2" width="24" height="24" rx="0" ry="0" style="fill: rgb(0, 0, 0);">
        <animateTransform
          attributeName="transform"
          begin="0s"
          dur="1s"
          type="rotate"
          from="0 75 75"
          to="360 75 75"
          repeatCount="indefinite"
        />
        <g id="shape-0f94aa67-5850-8085-8006-97f42f3092d3" style="display: none;">
            <g class="fills" id="fills-0f94aa67-5850-8085-8006-97f42f3092d3">
                <rect width="150" height="150" x="0" transform="matrix(1.000000, 0.000000, 0.000000, 1.000000, 0.000000, 0.000000)" style="fill: none;" ry="0" fill="none" rx="0" y="0"/>
            </g>
        </g>
        <g id="shape-0f94aa67-5850-8085-8006-97f42f3092d4" style="opacity: 0.2;">
            <g class="fills" id="fills-0f94aa67-5850-8085-8006-97f42f3092d4">
                <path d="M75,118.75C99.162353515625,118.75,118.75,99.162353515625,118.75,75C118.75,50.8377685546875,99.162353515625,31.25,75,31.25C50.837646484375,31.25,31.25,50.8377685546875,31.25,75C31.25,99.162353515625,50.837646484375,118.75,75,118.75M75,137.5C109.5185546875,137.5,137.5,109.5184326171875,137.5,75C137.5,40.4815673828125,109.5185546875,12.5,75,12.5C40.4814453125,12.5,12.5,40.4815673828125,12.5,75C12.5,109.5184326171875,40.4814453125,137.5,75,137.5" fill-rule="evenodd" clip-rule="evenodd"/>
            </g>
        </g>
        <g id="shape-0f94aa67-5850-8085-8006-97f42f3092d5">
            <g class="fills" id="fills-0f94aa67-5850-8085-8006-97f42f3092d5">
                <path d="M12.5,75C12.5,40.4815673828125,40.4814453125,12.5,75,12.5L75,31.25C50.837646484375,31.25,31.25,50.8377685546875,31.25,75Z"/>
            </g>
        </g>
    </g>
</svg>
